<?xml version="1.0" standalone="no"?>
<!DOCTYPE svg PUBLIC "-//W3C//DTD SVG 20010904//EN"
 "http://www.w3.org/TR/2001/REC-SVG-20010904/DTD/svg10.dtd">
<svg version="1.0" xmlns="http://www.w3.org/2000/svg"
 width="180.000000pt" height="180.000000pt" viewBox="0 0 180.000000 180.000000"
 preserveAspectRatio="xMidYMid meet">
<metadata>
Created by potrace 1.14, written by Peter Selinger 2001-2017
</metadata>
<g transform="translate(0.000000,180.000000) scale(0.100000,-0.100000)"
fill="#000000" stroke="none">
<path d="M437 1500 c-22 -18 -40 -20 -166 -20 l-141 0 0 -30 0 -30 141 0 c126
0 144 -2 166 -20 50 -39 116 -12 116 48 0 65 -64 93 -116 52z"/>
<path d="M765 1330 c-24 -16 -46 -20 -118 -20 -49 0 -97 -4 -107 -10 -10 -5
-42 -50 -70 -100 l-52 -90 -144 0 -144 0 0 -35 0 -35 104 0 c56 0 130 3 163 6
l61 7 54 91 54 91 88 3 c65 2 93 -1 105 -11 28 -24 51 -27 80 -12 44 22 54 67
24 103 -27 31 -63 36 -98 12z"/>
<path d="M430 850 c-22 -17 -41 -20 -162 -20 l-138 0 0 -30 0 -30 136 0 c121
0 139 -2 161 -20 77 -60 166 40 91 103 -26 22 -57 21 -88 -3z"/>
<path d="M842 844 c-18 -12 -22 -25 -22 -65 0 -40 -8 -65 -41 -125 -23 -41
-48 -81 -56 -89 -12 -13 -64 -15 -304 -15 l-289 0 0 -30 0 -30 223 1 c122 1
265 4 317 8 l95 6 59 107 c44 79 67 110 87 118 50 21 56 95 10 119 -28 15 -53
14 -79 -5z"/>
<path d="M1460 787 c-37 -18 -55 -62 -42 -103 9 -30 4 -43 -65 -171 -42 -76
-82 -146 -91 -155 -14 -17 -54 -18 -574 -18 l-558 0 0 -30 0 -30 583 0 582 0
95 172 c86 156 98 173 127 180 34 9 63 49 63 87 0 26 -39 68 -70 75 -14 3 -36
0 -50 -7z"/>
</g>
</svg>
